<?xml version="1.0" standalone="no"?><!DOCTYPE svg PUBLIC "-//W3C//DTD SVG 1.1//EN" "http://www.w3.org/Graphics/SVG/1.1/DTD/svg11.dtd"><svg t="1559200977827" class="icon" style="" viewBox="0 0 1024 1024" version="1.1" xmlns="http://www.w3.org/2000/svg" p-id="1712" xmlns:xlink="http://www.w3.org/1999/xlink" width="200" height="200"><defs><style type="text/css"></style></defs><path d="M511.4 959.6C266 959.6 66.3 759.9 66.3 514.4S266 69.3 511.4 69.3 956.5 269 956.5 514.4 756.8 959.6 511.4 959.6z m0-826.7c-210.4 0-381.5 171.2-381.5 381.5S301 896 511.4 896s381.5-171.2 381.5-381.5-171.1-381.6-381.5-381.6z"  p-id="1713"></path><path d="M829.3 530.3c-8.8 0-15.9-7.1-15.9-15.9 0-166.5-135.5-302-302-302-8.8 0-15.9-7.1-15.9-15.9s7.1-15.9 15.9-15.9c184.1 0 333.8 149.8 333.8 333.8 0 8.8-7.1 15.9-15.9 15.9z"  p-id="1714"></path><path d="M813.4 609.8m-15.9 0a15.9 15.9 0 1 0 31.8 0 15.9 15.9 0 1 0-31.8 0Z"  p-id="1715"></path><path d="M511.4 625.7c-61.4 0-111.3-49.9-111.3-111.3S450 403.2 511.4 403.2s111.3 49.9 111.3 111.3-49.9 111.2-111.3 111.2z m0-174.9c-35.1 0-63.6 28.5-63.6 63.6s28.5 63.6 63.6 63.6 63.6-28.5 63.6-63.6-28.5-63.6-63.6-63.6z"  p-id="1716"></path><path d="M582.9 482.6c-6.1 0-12.2-2.3-16.9-7-9.3-9.3-9.3-24.4 0-33.7l111.3-111.3c9.3-9.3 24.4-9.3 33.7 0 9.3 9.3 9.3 24.4 0 33.7L599.8 475.7c-4.7 4.6-10.8 6.9-16.9 6.9z"  p-id="1717"></path></svg>