<?xml version="1.0" standalone="no"?><!DOCTYPE svg PUBLIC "-//W3C//DTD SVG 1.1//EN" "http://www.w3.org/Graphics/SVG/1.1/DTD/svg11.dtd"><svg t="1545646154524" class="icon" style="" viewBox="0 0 1024 1024" version="1.1" xmlns="http://www.w3.org/2000/svg" p-id="4685" xmlns:xlink="http://www.w3.org/1999/xlink" width="200" height="200"><defs><style type="text/css"></style></defs><path d="M697.856 842.432l-147.36-210.464A95.68 95.68 0 0 1 512 640a95.68 95.68 0 0 1-38.496-8.032l-147.36 210.464h371.712z m45.92-46.016L851.2 465.824l-243.2 79.04c-0.128 15.36-3.872 29.888-10.432 42.72l146.24 208.832z m-463.552 0l146.24-208.832A95.552 95.552 0 0 1 416 544.832l-243.2-79.04 107.424 330.624zM544 453.472c17.152 6.08 32.096 16.864 43.2 30.848l242.112-78.688L544 198.4v255.104z m-64 0V198.368l-285.312 207.264 242.112 78.688A96.192 96.192 0 0 1 480 453.44zM512 96l426.08 309.568-162.752 500.864H248.672L85.92 405.568 512 96z" fill="#333333" p-id="4686"></path></svg>