<?xml version="1.0" standalone="no"?><!DOCTYPE svg PUBLIC "-//W3C//DTD SVG 1.1//EN" "http://www.w3.org/Graphics/SVG/1.1/DTD/svg11.dtd"><svg t="1559197638803" class="icon" style="" viewBox="0 0 1024 1024" version="1.1" xmlns="http://www.w3.org/2000/svg" p-id="919" xmlns:xlink="http://www.w3.org/1999/xlink" width="200" height="200"><defs><style type="text/css"></style></defs><path d="M696.8 923.1H329.2c-60.3 0-109.3-46.6-109.3-103.8V402.8h59.3v416.5c0 24.5 22.4 44.5 50 44.5h367.7c27.6 0 50-20 50-44.5V402.8h59.3v416.5c-0.1 57.2-49.1 103.8-109.4 103.8z"  p-id="920"></path><path d="M898.3 559.6c-7.6 0-15.2-2.9-21-8.7L513 186.5 148.6 550.9c-11.6 11.6-30.4 11.6-41.9 0-11.6-11.6-11.6-30.3 0-41.9L513 102.6 919.3 509c11.6 11.6 11.6 30.4 0 41.9-5.8 5.8-13.4 8.7-21 8.7z"  p-id="921"></path><path d="M321.8 447.7c-3.8 0-7.6-1.4-10.5-4.3-5.8-5.8-5.8-15.2 0-21L513 220.7l57.8 57.8c5.8 5.8 5.8 15.2 0 21-5.8 5.8-15.2 5.8-21 0L513 262.6 332.3 443.4c-2.9 2.9-6.7 4.3-10.5 4.3zM571.4 773.9H452.8c-32.7 0-59.3-26.6-59.3-59.3V596c0-32.7 26.6-59.3 59.3-59.3h118.6c32.7 0 59.3 26.6 59.3 59.3v118.6c0 32.7-26.6 59.3-59.3 59.3z m0-59.3v29.7-29.7zM452.8 596v118.6h118.5l0.1-118.6H452.8z"  p-id="922"></path><path d="M601.1 343.9m-14.8 0a14.8 14.8 0 1 0 29.6 0 14.8 14.8 0 1 0-29.6 0Z"  p-id="923"></path></svg>