<?xml version="1.0" standalone="no"?><!DOCTYPE svg PUBLIC "-//W3C//DTD SVG 1.1//EN" "http://www.w3.org/Graphics/SVG/1.1/DTD/svg11.dtd"><svg t="1559200123927" class="icon" style="" viewBox="0 0 1024 1024" version="1.1" xmlns="http://www.w3.org/2000/svg" p-id="1526" xmlns:xlink="http://www.w3.org/1999/xlink" width="200" height="200"><defs><style type="text/css"></style></defs><path d="M796.8 763.3c-149.5 0-232.4-48.5-290.5-162.3-34.1-66.7-84-110.5-144.3-126.5-66.5-17.7-143.7-0.9-217.3 47.2L99 551.4V217.8c0-65 52.9-117.8 117.8-117.8H806c65 0 117.8 52.9 117.8 117.8v536.6l-26.3 2.8c-36.6 4-70.1 6.1-100.7 6.1zM308.2 408.7c23.5 0 46.6 2.9 68.8 8.8 76.9 20.4 139.7 74.6 181.6 156.6C614 682.4 692.8 716.1 865 701.3V217.8c0-32.5-26.4-58.9-58.9-58.9H216.8c-32.5 0-58.9 26.4-58.9 58.9v228.4c50.1-24.8 101.2-37.5 150.3-37.5z"  p-id="1527"></path><path d="M806.1 924.9H216.8C151.9 924.9 99 872 99 807V481l13.3-8.7c87.8-57.4 181.8-76.8 264.7-54.8 76.9 20.4 139.7 74.6 181.6 156.6 58.1 113.6 142.1 145 332.6 124.5l32.6-3.5V807c0.1 65-52.8 117.9-117.7 117.9zM157.9 513.3V807c0 32.5 26.4 58.9 58.9 58.9H806c32.5 0 58.9-26.4 58.9-58.9v-46.7C671.5 775.8 572.7 731 506.2 601c-34.1-66.7-84-110.5-144.3-126.5-62.5-16.6-134.4-2.8-204 38.8z"  p-id="1528"></path><path d="M496.7 703.9c-5.6 0-10.9-3.2-13.4-8.6-40-86.7-84.5-138.6-132-154-32.4-10.5-67.1-5.1-106.1 16.7-7.1 4-16.1 1.4-20-5.7-4-7.1-1.4-16.1 5.7-20 45.9-25.6 89.6-32 129.6-18.9 56.5 18.4 105.4 73.9 149.7 169.7 3.4 7.4 0.2 16.1-7.2 19.5-2.1 0.9-4.2 1.3-6.3 1.3zM688.2 416.7c-52.8 0-95.7-43-95.7-95.7s43-95.7 95.7-95.7c52.8 0 95.7 43 95.7 95.7s-42.9 95.7-95.7 95.7z m0-147.3c-28.4 0-51.6 23.1-51.6 51.6s23.1 51.6 51.6 51.6 51.6-23.1 51.6-51.6-23.2-51.6-51.6-51.6z"  p-id="1529"></path><path d="M202.1 571.4m-14.7 0a14.7 14.7 0 1 0 29.4 0 14.7 14.7 0 1 0-29.4 0Z"  p-id="1530"></path></svg>