<?xml version="1.0" standalone="no"?><!DOCTYPE svg PUBLIC "-//W3C//DTD SVG 1.1//EN" "http://www.w3.org/Graphics/SVG/1.1/DTD/svg11.dtd"><svg t="1559198826023" class="icon" style="" viewBox="0 0 1024 1024" version="1.1" xmlns="http://www.w3.org/2000/svg" p-id="1155" xmlns:xlink="http://www.w3.org/1999/xlink" width="200" height="200"><defs><style type="text/css"></style></defs><path d="M487.3 489.1H238.7c-74.9 0-135.9-61-135.9-135.9V104.6h248.6c74.9 0 135.9 61 135.9 135.9v248.6zM155.8 157.7v195.6c0 45.7 37.2 82.9 82.9 82.9h195.6V240.5c0-45.7-37.2-82.9-82.9-82.9H155.8zM918.2 920H669.6c-74.9 0-135.9-61-135.9-135.9V535.5h248.6c74.9 0 135.9 61 135.9 135.9V920zM586.7 588.5v195.6c0 45.7 37.2 82.9 82.9 82.9h195.6V671.4c0-45.7-37.2-82.9-82.9-82.9H586.7zM358 920H109.4V671.4c0-74.9 61-135.9 135.9-135.9h248.6v248.6C493.9 859 433 920 358 920z m-195.5-53H358c45.7 0 82.9-37.2 82.9-82.9V588.5H245.3c-45.7 0-82.9 37.2-82.9 82.9V867zM782.3 495.7H533.7V247.2c0-74.9 61-135.9 135.9-135.9h248.6v248.6c0 74.9-61 135.8-135.9 135.8z m-195.6-53h195.6c45.7 0 82.9-37.2 82.9-82.9V164.3H669.6c-45.7 0-82.9 37.2-82.9 82.9v195.5z"  p-id="1156"></path><path d="M748 429.5h-28.7c-7.3 0-13.3-5.9-13.3-13.3 0-7.3 5.9-13.3 13.3-13.3H748c42.6 0 77.3-34.7 77.3-77.3v-81.8c0-7.3 5.9-13.3 13.3-13.3 7.3 0 13.3 5.9 13.3 13.3v81.8c0 57.3-46.6 103.9-103.9 103.9z"  p-id="1157"></path><path d="M679.5 416.2m-13.3 0a13.3 13.3 0 1 0 26.6 0 13.3 13.3 0 1 0-26.6 0Z"  p-id="1158"></path></svg>